<?xml version="1.0" encoding="UTF-8" standalone="no"?>
<svg
   viewBox="0 0 200 200"
   version="1.1"
   width="200"
   height="200"
   xmlns="http://www.w3.org/2000/svg"
   xmlns:svg="http://www.w3.org/2000/svg">
   <g
      transform="matrix(3.6062043,0,0,3.6062043,-204.72426,-239.00994)"
      fill="oklch(0.5 0.13 40)"
      stroke="oklch(0.95 0.13 40)"
      stroke-width="0.5">
      <path
         d="m 84.5,66.890027 c -4.849111,2.792374 -8.794148,6.719539 -10.773184,13.114422 -1.255563,1.038628 -2.331168,2.020899 -3.226815,2.946811 l 2,0.04499 v 24.52387 h -2.304856 c 1.101619,1.19818 2.203237,2.09642 3.304856,2.69474 1.267229,4.2665 4.933896,7.90315 10.999999,10.90994 6.066103,-3.00679 9.73277,-6.64344 10.999999,-10.90994 1.101619,-0.59832 2.203237,-1.49656 3.304856,-2.69474 H 96.504652 V 82.99625 l 2,-0.04499 C 97.609005,82.025348 96.5334,81.043077 95.277837,80.004449 93.298801,73.609566 89.353764,69.682401 84.5,66.890027 Z m 0,5.630096 c -2.999999,2.796787 -7.637811,5.593961 -5.716741,11.492047 l -2.942641,3.507952 -0.111343,13.630948 c 0.673361,1.70238 1.686054,3.15873 3.038078,4.36905 -0.267352,3 -1.839724,5 5.732647,10 7.572371,-5 5.999999,-7 5.732647,-10 1.352024,-1.21032 2.364717,-2.66667 3.038078,-4.36905 L 93.164035,87.520122 90.221394,84.01217 c 1.92107,-5.898086 -2.716742,-8.69526 -5.716741,-11.492047 z"
         fill-rule="evenodd"
         stroke="none" />
      <path
         d="m 84.5,72.520123 c -2.999999,2.796787 -7.637811,5.593961 -5.716741,11.492047 l -2.942641,3.507952 -0.111343,13.630948 c 0.673361,1.70238 1.686054,3.15873 3.038078,4.36905 -0.267352,3 -1.839724,5 5.732647,10 7.572371,-5 5.999999,-7 5.732647,-10 1.352024,-1.21032 2.364717,-2.66667 3.038078,-4.36905 L 93.164035,87.520122 90.221394,84.01217 c 1.92107,-5.898086 -2.716742,-8.69526 -5.716741,-11.492047 z"
         fill="none" />
      <path
         d="m 84.5,66.890027 c -4.849111,2.792374 -8.794148,6.719539 -10.773184,13.114422 -1.255563,1.038628 -2.331168,2.020899 -3.226815,2.946811 l 2,0.04499 v 24.52387 h -2.304856 c 1.101619,1.19818 2.203237,2.09642 3.304856,2.69474 1.267229,4.2665 4.933896,7.90315 10.999999,10.90994 6.066103,-3.00679 9.73277,-6.64344 10.999999,-10.90994 1.101619,-0.59832 2.203237,-1.49656 3.304856,-2.69474 H 96.504652 V 82.99625 l 2,-0.04499 C 97.609005,82.025348 96.5334,81.043077 95.277837,80.004449 93.298801,73.609566 89.353764,69.682401 84.5,66.890027 Z"
         fill="none" />
      <path
         d="m 84.5,79.520123 -0.475657,0.125806 V 87.8217 H 84.5 84.975657 v -8.175771 z"
      />
      <path
         d="m 84.5,83.323878 c -0.475655,0.01393 -0.972981,-0.239713 -1.310732,-1.618102 -0.779351,2.025159 -0.144675,3.275222 1.310732,3.268718 1.455407,0.0065 2.090083,-1.243559 1.310732,-3.268718 -0.33775,1.378389 -0.835076,1.632031 -1.310732,1.618102 z"
      />
      <path
         d="m 84.5,86.07202 c -1.514712,0.0074 -1.55874,-0.739253 -1.999998,-1.39179 -0.711817,1.665171 -10e-7,3.578889 1.999999,3.578889 2,0 2.711816,-1.913718 1.999999,-3.578889 -0.441258,0.652537 -0.485286,1.39919 -1.999998,1.39179"
      />
      <path
         d="M 84.5,87.336562 82.155369,91.034746 84.5,94.462524 86.844631,91.034746 Z"
      />
      <path
         d="m 84.5,97.520123 c -1.783985,2.117074 -3.635455,4.294127 -5.554408,6.531177 2.416203,-0.82462 3.793395,-2.82054 5.342496,-4.622659 v 0.911029 c -1.477963,1.79043 -2.930981,3.57405 -4.24588,5.32001 1.916461,-0.97497 3.086186,-2.65839 4.457792,-4.15028 1.371606,1.49189 2.541331,3.17531 4.457792,4.15028 -1.314899,-1.74596 -2.767917,-3.52958 -4.24588,-5.32001 v -0.911029 c 1.549101,1.802119 2.926293,3.798039 5.342496,4.622659 C 88.135455,101.81425 86.283985,99.637197 84.5,97.520123 Z"
      />
      <path
         d="m 84.5,94.462524 -1,2.057598 1,1.823508 1,-1.823508 z"
      />
      <path
         style="stroke-linejoin:round"
         d="m 84.5,102.37545 c -0.651642,0.006 -0.798392,0.62417 -0.810071,0.95875 5.69e-4,0.38718 0.23949,0.84742 0.609406,0.98704 -0.543584,0.10314 -1.065779,-0.16864 -1.566586,-0.81533 -0.05892,0.92037 0.377046,1.6308 1.307898,2.13127 -0.142606,0.0648 0.273256,2.18785 0.459353,2.10326 0.186097,0.0846 0.601959,-2.03846 0.459353,-2.10326 0.930852,-0.50047 1.366818,-1.2109 1.307898,-2.13127 -0.500807,0.64669 -1.023002,0.91847 -1.566586,0.81533 0.369916,-0.13962 0.608837,-0.59986 0.609406,-0.98704 -0.01168,-0.33458 -0.158429,-0.95275 -0.810071,-0.95875 z"
      />
   </g>
</svg>